<?xml version="1.0" encoding="UTF-8" standalone="no"?>
<!-- Created with Inkscape (http://www.inkscape.org/) -->

<svg
   width="116.38609mm"
   height="116.39944mm"
   viewBox="0 0 116.38609 116.39944"
   version="1.1"
   id="svg13952"
   xmlns="http://www.w3.org/2000/svg"
   xmlns:svg="http://www.w3.org/2000/svg">
  <defs
     id="defs13949" />
  <g
     id="g81477"
     transform="translate(-51.553243,-70.461042)"
     style="display:inline">
    <path
       style="fill:#2b292c;fill-opacity:1;stroke:none;stroke-width:0.248828;stroke-opacity:1"
       d="m 102.49286,186.51472 c -7.340763,-0.71253 -20.225897,-5.86809 -26.707371,-10.68607 -4.016724,-2.98582 -9.847963,-8.73403 -12.794324,-12.61214 -4.671242,-6.14846 -9.025485,-16.13498 -10.605994,-24.325 -0.679657,-3.5219 -0.896541,-9.67047 -0.53149,-15.06754 0.325697,-4.81523 0.640945,-6.62946 1.911937,-11.00305 2.732749,-9.40362 7.51703,-17.669671 14.28056,-24.673241 6.864064,-7.10767 15.254301,-12.26593 24.708003,-15.19029 6.438501,-1.99165 9.218259,-2.3586 17.967109,-2.37176 5.2138,-0.008 7.95158,0.25837 11.57049,1.12511 15.32504,3.67039 27.78828,12.35673 36.39283,25.36423 1.76843,2.673334 4.77479,8.733001 6.04907,12.192571 1.1877,3.22454 2.52958,8.55014 2.84255,11.28144 0.31888,2.7828 0.31486,12.66435 -0.006,15.71638 -0.72227,6.86209 -4.15135,16.39035 -8.31557,23.10619 -2.21312,3.56921 -4.89098,6.74327 -9.3712,11.10764 -5.14188,5.00893 -7.50822,6.69572 -13.78135,9.82376 -7.43029,3.70504 -13.62473,5.62586 -20.03064,6.21126 -3.22376,0.29461 -10.54552,0.29488 -13.57822,5.3e-4 z"
       id="path81467" />
    <text
       xml:space="preserve"
       style="font-style:normal;font-weight:normal;font-size:62.8002px;line-height:0;font-family:sans-serif;letter-spacing:-3.40769px;word-spacing:0px;fill:#f9f9f9;fill-opacity:1;stroke:none;stroke-width:0.360458"
       x="75.054123"
       y="124.90564"
       id="text81471"
       transform="scale(0.82286422,1.2152673)"><tspan
         id="tspan81469"
         style="font-style:normal;font-variant:normal;font-weight:normal;font-stretch:normal;font-size:62.8002px;font-family:'Space Mono';-inkscape-font-specification:'Space Mono';baseline-shift:baseline;fill:#f9f9f9;fill-opacity:1;stroke-width:0.360458"
         x="75.054123"
         y="124.90564"
         rotate="0" /></text>
    <text
       xml:space="preserve"
       style="font-style:normal;font-weight:normal;font-size:50.8px;line-height:1.25;font-family:sans-serif;fill:#000000;fill-opacity:1;stroke:none;stroke-width:0.264583"
       x="109.0603"
       y="151.10667"
       id="text81475"><tspan
         id="tspan81473"
         style="font-style:normal;font-variant:normal;font-weight:normal;font-stretch:normal;font-size:50.8px;font-family:'Space Mono';-inkscape-font-specification:'Space Mono';fill:#f9f9f9;fill-opacity:1;stroke-width:0.264583"
         x="109.0603"
         y="151.10667" /></text>
    <path
       style="fill:#f9f9f9;fill-opacity:1;stroke:#ffffff;stroke-width:0.665;stroke-opacity:1;opacity:0"
       d="m 162.25995,295.96469 v -11.01227 h 5.6525 5.6525 v -78.80248 -78.80248 h -5.6525 -5.6525 v -10.63999 -10.64 h 25.96997 c 29.0517,0 31.67377,0.28802 40.42215,4.44017 5.71437,2.71216 12.4985,9.06809 15.9308,14.9253 3.18545,5.43597 6.5781,15.4743 8.11558,24.01273 2.27669,12.64364 2.83316,27.41223 2.46234,65.34927 -0.40115,41.04012 -1.02568,47.46241 -6.05958,62.31368 -2.75562,8.12977 -5.63109,13.0003 -10.70821,18.1378 -4.55348,4.60762 -8.46969,7.00036 -15.61806,9.54239 l -4.9875,1.7736 -27.76374,0.20728 -27.76375,0.20727 z m 53.14238,-12.03722 c 10.90578,-2.57065 17.29665,-9.29662 20.63012,-21.71185 2.82982,-10.5394 3.03517,-14.36061 3.03082,-56.39818 -0.003,-35.04958 -0.15082,-41.04991 -1.14262,-46.57779 -1.66968,-9.30607 -3.52025,-14.67062 -6.68204,-19.37036 -6.37344,-9.47357 -14.76047,-12.4505 -35.22991,-12.50467 l -6.48375,-0.0172 v 78.80248 78.80248 l 10.80624,-0.01 c 7.28684,-0.007 12.19525,-0.33724 15.07114,-1.01512 z"
       id="path88796"
       transform="matrix(0.26458333,0,0,0.26458333,51.553243,70.461042)" />
    <path
       style="fill:#f9f9f9;fill-opacity:1;stroke:#ffffff;stroke-width:0.665;stroke-opacity:1;opacity:0"
       d="m 88.191235,310.18451 c -4.250829,-1.05836 -10.468038,-4.33973 -14.692645,-7.7546 -10.53261,-8.51382 -17.957199,-23.01152 -21.38108,-41.74998 -0.980127,-5.36411 -1.217241,-10.12191 -1.226242,-24.605 -0.0099,-15.97249 0.152639,-18.76267 1.472312,-25.26999 3.698379,-18.23673 9.739065,-30.64951 19.294188,-39.64691 7.217113,-6.79586 15.889828,-10.53788 24.434705,-10.54285 12.576777,-0.007 25.353807,9.78535 30.561927,23.42352 0.96899,2.53744 1.51549,3.15875 2.77841,3.15875 h 1.57215 v -40.56499 -40.56499 h 7.315 7.315 v 100.41497 100.41497 h -7.315 -7.315 v -10.97249 c 0,-10.94749 -0.003,-10.97241 -1.49625,-10.93223 -1.19422,0.0321 -1.9941,1.07244 -3.96264,5.15374 -4.35342,9.02577 -11.17485,15.78078 -18.98619,18.8013 -4.31399,1.66815 -14.013144,2.32121 -18.368645,1.23678 z m 20.102615,-22.11684 c 4.6612,-2.35367 7.57011,-4.80616 10.88819,-9.17978 7.55449,-9.95771 11.81201,-25.38921 11.81201,-42.81296 0,-25.41955 -8.72805,-45.26196 -22.99795,-52.28372 -4.10623,-2.02054 -5.13576,-2.24615 -10.245387,-2.24522 -5.067239,6.7e-4 -6.155797,0.23506 -10.084009,2.16891 -8.804868,4.33463 -16.331458,15.09468 -19.756067,28.24338 -3.799087,14.58651 -3.223411,39.73888 1.203538,52.58488 4.472916,12.97936 12.051934,21.7161 21.516016,24.80264 1.744978,0.56909 4.934976,0.83916 8.454781,0.71579 4.564688,-0.16 6.336918,-0.54372 9.208878,-1.99392 z"
       id="path88835"
       transform="matrix(0.26458333,0,0,0.26458333,51.553243,70.461042)" />
    <path
       style="fill:#f9f9f9;fill-opacity:1;stroke:#ffffff;stroke-width:0.665;stroke-opacity:1;opacity:0"
       d="m 270.32242,305.82675 c -2.98761,-1.63352 -4.32612,-2.98165 -5.77076,-5.8122 -1.57491,-3.08581 -1.73444,-8.80536 -0.3211,-11.51205 3.03728,-5.8167 10.5156,-8.97356 16.18982,-6.83429 4.44801,1.67696 8.81067,7.90493 8.83993,12.61955 0.0199,3.20566 -2.45065,7.79057 -5.50912,10.22399 -2.15689,1.71608 -3.18954,2.0429 -6.9825,2.20986 -3.17366,0.13969 -5.02387,-0.11715 -6.44627,-0.89486 z"
       id="path88874"
       transform="matrix(0.26458333,0,0,0.26458333,51.553243,70.461042)" />
    <path
       style="opacity:1;fill:#f9f9f9;fill-opacity:1;stroke:none;stroke-width:0.707107;stroke-opacity:1"
       d="M 85.543592,309.16418 C 79.197438,307.00033 74.496629,303.81401 68.794738,297.8114 60.648127,289.23513 55.108058,276.84478 52.23647,260.77887 50.271807,249.787 50.050097,224.27499 51.828999,213.89139 c 3.923677,-22.90285 13.131715,-39.63243 26.48659,-48.12204 8.842854,-5.62135 21.050928,-6.49023 30.108581,-2.14291 7.08366,3.39988 12.92771,9.42721 16.69261,17.21612 2.21479,4.58199 3.34187,6.18718 4.34433,6.18718 1.31776,0 1.35364,-1.07783 1.35364,-40.65864 v -40.65864 h 7.42463 7.42462 V 206.47518 307.2379 h -7.42462 -7.42463 v -10.96016 c 0,-10.39299 -0.0713,-10.96015 -1.37809,-10.96015 -0.99317,0 -1.96961,1.23442 -3.49582,4.41941 -8.07738,16.85647 -24.61379,24.80888 -40.397248,19.42718 z m 23.147968,-21.24513 c 5.11572,-2.62534 8.11791,-5.44257 11.9623,-11.22535 3.82253,-5.74992 6.85579,-13.13704 8.58557,-20.90907 1.5384,-6.91214 1.72515,-31.41985 0.28954,-37.99574 -3.64417,-16.69224 -10.76153,-28.21682 -20.7816,-33.65 -4.12542,-2.23693 -4.91214,-2.41245 -10.813081,-2.41245 -5.506968,0 -6.895701,0.26114 -10.312619,1.93921 -8.686036,4.26576 -16.412461,15.39675 -19.759544,28.46638 -3.145519,12.28258 -3.135584,35.72097 0.02039,48.10401 3.654052,14.33734 11.640146,25.07315 21.320193,28.661 5.55532,2.05906 14.439621,1.61322 19.488861,-0.97799 z"
       id="path125418"
       transform="matrix(0.26458333,0,0,0.26458333,51.553243,70.461042)" />
    <path
       style="opacity:1;fill:#f9f9f9;fill-opacity:1;stroke:none;stroke-width:0.707107;stroke-opacity:1"
       d="m 161.92745,295.98235 v -11.37187 h 6.01041 6.01041 v -78.48885 -78.48886 h -6.01041 -6.01041 v -11.0121 -11.0121 l 27.04684,0.27709 c 22.75511,0.23312 27.72004,0.4682 31.28947,1.48145 19.2128,5.45393 29.12456,19.6026 33.38488,47.65573 1.10834,7.29812 1.26335,13.61123 1.26335,51.45234 0,37.84111 -0.15501,44.15422 -1.26335,51.45234 -4.25482,28.01685 -14.22253,42.24312 -33.38488,47.64805 -3.55116,1.00165 -8.65084,1.24411 -31.28947,1.48767 l -27.04684,0.29098 z m 56.00844,-12.70473 c 13.78659,-4.45872 19.2762,-15.44785 21.15165,-42.34146 1.12792,-16.17424 0.41521,-71.9196 -1.03273,-80.77647 -2.92796,-17.9099 -9.11342,-27.21153 -20.51274,-30.84684 -2.55393,-0.81447 -7.28701,-1.26298 -15.83986,-1.50101 l -12.19759,-0.33947 v 79.0042 79.00421 l 11.84404,-0.33458 c 9.57768,-0.27056 12.75164,-0.62812 16.58723,-1.86858 z"
       id="path125457"
       transform="matrix(0.26458333,0,0,0.26458333,51.553243,70.461042)" />
    <path
       style="opacity:1;fill:#f9f9f9;fill-opacity:1;stroke:none;stroke-width:0.187089;stroke-opacity:1"
       d="m 122.12965,151.43644 c -0.81705,-0.24712 -1.63896,-0.96817 -2.03415,-1.78454 -1.24781,-2.57762 0.9818,-5.41097 3.83655,-4.87541 0.80998,0.15195 2.10523,1.2634 2.46005,2.11095 1.06324,2.53976 -1.57973,5.36041 -4.26245,4.549 z"
       id="path125496" />
  </g>
</svg>
