<?xml version="1.0" encoding="UTF-8" standalone="no"?>
<!-- Created with Inkscape (http://www.inkscape.org/) -->

<svg
   width="116.38609mm"
   height="116.39944mm"
   viewBox="0 0 116.38609 116.39944"
   version="1.1"
   id="svg13952"
   xmlns="http://www.w3.org/2000/svg"
   xmlns:svg="http://www.w3.org/2000/svg">
  <defs
     id="defs13949" />
  <g
     id="g81477"
     transform="translate(-51.553243,-70.461042)"
     style="display:inline">
    <path
       style="fill:#2b292c;fill-opacity:1;stroke:none;stroke-width:0.248828;stroke-opacity:1"
       d="m 102.49286,186.51472 c -7.340763,-0.71253 -20.225897,-5.86809 -26.707371,-10.68607 -4.016724,-2.98582 -9.847963,-8.73403 -12.794324,-12.61214 -4.671242,-6.14846 -9.025485,-16.13498 -10.605994,-24.325 -0.679657,-3.5219 -0.896541,-9.67047 -0.53149,-15.06754 0.325697,-4.81523 0.640945,-6.62946 1.911937,-11.00305 2.732749,-9.40362 7.51703,-17.669671 14.28056,-24.673241 6.864064,-7.10767 15.254301,-12.26593 24.708003,-15.19029 6.438501,-1.99165 9.218259,-2.3586 17.967109,-2.37176 5.2138,-0.008 7.95158,0.25837 11.57049,1.12511 15.32504,3.67039 27.78828,12.35673 36.39283,25.36423 1.76843,2.673334 4.77479,8.733001 6.04907,12.192571 1.1877,3.22454 2.52958,8.55014 2.84255,11.28144 0.31888,2.7828 0.31486,12.66435 -0.006,15.71638 -0.72227,6.86209 -4.15135,16.39035 -8.31557,23.10619 -2.21312,3.56921 -4.89098,6.74327 -9.3712,11.10764 -5.14188,5.00893 -7.50822,6.69572 -13.78135,9.82376 -7.43029,3.70504 -13.62473,5.62586 -20.03064,6.21126 -3.22376,0.29461 -10.54552,0.29488 -13.57822,5.3e-4 z"
       id="path81467" />
    <text
       xml:space="preserve"
       style="font-style:normal;font-weight:normal;font-size:62.8002px;line-height:0;font-family:sans-serif;letter-spacing:-3.40769px;word-spacing:0px;fill:#f9f9f9;fill-opacity:1;stroke:none;stroke-width:0.360458"
       x="75.054123"
       y="124.90564"
       id="text81471"
       transform="scale(0.82286422,1.2152673)"><tspan
         id="tspan81469"
         style="font-style:normal;font-variant:normal;font-weight:normal;font-stretch:normal;font-size:62.8002px;font-family:'Space Mono';-inkscape-font-specification:'Space Mono';baseline-shift:baseline;fill:#f9f9f9;fill-opacity:1;stroke-width:0.360458"
         x="75.054123"
         y="124.90564"
         rotate="0" /></text>
    <text
       xml:space="preserve"
       style="font-style:normal;font-weight:normal;font-size:50.8px;line-height:1.25;font-family:sans-serif;fill:#000000;fill-opacity:1;stroke:none;stroke-width:0.264583"
       x="109.0603"
       y="151.10667"
       id="text81475"><tspan
         id="tspan81473"
         style="font-style:normal;font-variant:normal;font-weight:normal;font-stretch:normal;font-size:50.8px;font-family:'Space Mono';-inkscape-font-specification:'Space Mono';fill:#f9f9f9;fill-opacity:1;stroke-width:0.264583"
         x="109.0603"
         y="151.10667" /></text>
    <path
       style="fill:#f9f9f9;fill-opacity:1;stroke:#ffffff;stroke-width:0.665;stroke-opacity:1;opacity:0"
       d="m 162.25995,295.96469 v -11.01227 h 5.6525 5.6525 v -78.80248 -78.80248 h -5.6525 -5.6525 v -10.63999 -10.64 h 25.96997 c 29.0517,0 31.67377,0.28802 40.42215,4.44017 5.71437,2.71216 12.4985,9.06809 15.9308,14.9253 3.18545,5.43597 6.5781,15.4743 8.11558,24.01273 2.27669,12.64364 2.83316,27.41223 2.46234,65.34927 -0.40115,41.04012 -1.02568,47.46241 -6.05958,62.31368 -2.75562,8.12977 -5.63109,13.0003 -10.70821,18.1378 -4.55348,4.60762 -8.46969,7.00036 -15.61806,9.54239 l -4.9875,1.7736 -27.76374,0.20728 -27.76375,0.20727 z m 53.14238,-12.03722 c 10.90578,-2.57065 17.29665,-9.29662 20.63012,-21.71185 2.82982,-10.5394 3.03517,-14.36061 3.03082,-56.39818 -0.003,-35.04958 -0.15082,-41.04991 -1.14262,-46.57779 -1.66968,-9.30607 -3.52025,-14.67062 -6.68204,-19.37036 -6.37344,-9.47357 -14.76047,-12.4505 -35.22991,-12.50467 l -6.48375,-0.0172 v 78.80248 78.80248 l 10.80624,-0.01 c 7.28684,-0.007 12.19525,-0.33724 15.07114,-1.01512 z"
       id="path88796"
       transform="matrix(0.26458333,0,0,0.26458333,51.553243,70.461042)" />
    <path
       style="fill:#f9f9f9;fill-opacity:1;stroke:#ffffff;stroke-width:0.665;stroke-opacity:1;opacity:0"
       d="m 88.191235,310.18451 c -4.250829,-1.05836 -10.468038,-4.33973 -14.692645,-7.7546 -10.53261,-8.51382 -17.957199,-23.01152 -21.38108,-41.74998 -0.980127,-5.36411 -1.217241,-10.12191 -1.226242,-24.605 -0.0099,-15.97249 0.152639,-18.76267 1.472312,-25.26999 3.698379,-18.23673 9.739065,-30.64951 19.294188,-39.64691 7.217113,-6.79586 15.889828,-10.53788 24.434705,-10.54285 12.576777,-0.007 25.353807,9.78535 30.561927,23.42352 0.96899,2.53744 1.51549,3.15875 2.77841,3.15875 h 1.57215 v -40.56499 -40.56499 h 7.315 7.315 v 100.41497 100.41497 h -7.315 -7.315 v -10.97249 c 0,-10.94749 -0.003,-10.97241 -1.49625,-10.93223 -1.19422,0.0321 -1.9941,1.07244 -3.96264,5.15374 -4.35342,9.02577 -11.17485,15.78078 -18.98619,18.8013 -4.31399,1.66815 -14.013144,2.32121 -18.368645,1.23678 z m 20.102615,-22.11684 c 4.6612,-2.35367 7.57011,-4.80616 10.88819,-9.17978 7.55449,-9.95771 11.81201,-25.38921 11.81201,-42.81296 0,-25.41955 -8.72805,-45.26196 -22.99795,-52.28372 -4.10623,-2.02054 -5.13576,-2.24615 -10.245387,-2.24522 -5.067239,6.7e-4 -6.155797,0.23506 -10.084009,2.16891 -8.804868,4.33463 -16.331458,15.09468 -19.756067,28.24338 -3.799087,14.58651 -3.223411,39.73888 1.203538,52.58488 4.472916,12.97936 12.051934,21.7161 21.516016,24.80264 1.744978,0.56909 4.934976,0.83916 8.454781,0.71579 4.564688,-0.16 6.336918,-0.54372 9.208878,-1.99392 z"
       id="path88835"
       transform="matrix(0.26458333,0,0,0.26458333,51.553243,70.461042)" />
    <path
       style="fill:#f9f9f9;fill-opacity:1;stroke:#ffffff;stroke-width:0.665;stroke-opacity:1;opacity:0"
       d="m 270.32242,305.82675 c -2.98761,-1.63352 -4.32612,-2.98165 -5.77076,-5.8122 -1.57491,-3.08581 -1.73444,-8.80536 -0.3211,-11.51205 3.03728,-5.8167 10.5156,-8.97356 16.18982,-6.83429 4.44801,1.67696 8.81067,7.90493 8.83993,12.61955 0.0199,3.20566 -2.45065,7.79057 -5.50912,10.22399 -2.15689,1.71608 -3.18954,2.0429 -6.9825,2.20986 -3.17366,0.13969 -5.02387,-0.11715 -6.44627,-0.89486 z"
       id="path88874"
       transform="matrix(0.26458333,0,0,0.26458333,51.553243,70.461042)" />
    <path
       style="opacity:1;fill:#f9f9f9;fill-opacity:1;stroke:none;stroke-width:0.707107;stroke-opacity:1"
       d="M 85.543592,309.16418 C 79.197438,307.00033 74.496629,303.81401 68.794738,297.8114 60.648127,289.23513 55.108058,276.84478 52.23647,260.77887 50.271807,249.787 50.050097,224.27499 51.828999,213.89139 c 3.923677,-22.90285 13.131715,-39.63243 26.48659,-48.12204 8.842854,-5.62135 21.050928,-6.49023 30.108581,-2.14291 7.08366,3.39988 12.92771,9.42721 16.69261,17.21612 2.21479,4.58199 3.34187,6.18718 4.34433,6.18718 1.31776,0 1.35364,-1.07783 1.35364,-40.65864 v -40.65864 h 7.42463 7.42462 V 206.47518 307.2379 h -7.42462 -7.42463 v -10.96016 c 0,-10.39299 -0.0713,-10.96015 -1.37809,-10.96015 -0.99317,0 -1.96961,1.23442 -3.49582,4.41941 -8.07738,16.85647 -24.61379,24.80888 -40.397248,19.42718 z m 23.147968,-21.24513 c 5.11572,-2.62534 8.11791,-5.44257 11.9623,-11.22535 3.82253,-5.74992 6.85579,-13.13704 8.58557,-20.90907 1.5384,-6.91214 1.72515,-31.41985 0.28954,-37.99574 -3.64417,-16.69224 -10.76153,-28.21682 -20.7816,-33.65 -4.12542,-2.23693 -4.91214,-2.41245 -10.813081,-2.41245 -5.506968,0 -6.895701,0.26114 -10.312619,1.93921 -8.686036,4.26576 -16.412461,15.39675 -19.759544,28.46638 -3.145519,12.28258 -3.135584,35.72097 0.02039,48.10401 3.654052,14.33734 11.640146,25.07315 21.320193,28.661 5.55532,2.05906 14.439621,1.61322 19.488861,-0.97799 z"
       id="path125418"
       transform="matrix(0.26458333,0,0,0.26458333,51.553243,70.461042)" />
    <path
       style="opacity:1;fill:#f9f9f9;fill-opacity:1;stroke:none;stroke-width:0.707107;stroke-opacity:1"
       d="m 161.92745,295.98235 v -11.37187 h 6.01041 6.01041 v -78.48885 -78.48886 h -6.01041 -6.01041 v -11.0121 -11.0121 l 27.04684,0.27709 c 22.75511,0.23312 27.72004,0.4682 31.28947,1.48145 19.2128,5.45393 29.12456,19.6026 33.38488,47.65573 1.10834,7.29812 1.26335,13.61123 1.26335,51.45234 0,37.84111 -0.15501,44.15422 -1.26335,51.45234 -4.25482,28.01685 -14.22253,42.24312 -33.38488,47.64805 -3.55116,1.00165 -8.65084,1.24411 -31.28947,1.48767 l -27.04684,0.29098 z m 56.00844,-12.70473 c 13.78659,-4.45872 19.2762,-15.44785 21.15165,-42.34146 1.12792,-16.17424 0.41521,-71.9196 -1.03273,-80.77647 -2.92796,-17.9099 -9.11342,-27.21153 -20.51274,-30.84684 -2.55393,-0.81447 -7.28701,-1.26298 -15.83986,-1.50101 l -12.19759,-0.33947 v 79.0042 79.00421 l 11.84404,-0.33458 c 9.57768,-0.27056 12.75164,-0.62812 16.58723,-1.86858 z"
       id="path125457"
       transform="matrix(0.26458333,0,0,0.26458333,51.553243,70.461042)" />
    <path
       style="opacity:1;fill:#f9f9f9;fill-opacity:1;stroke:none;stroke-width:0.187089;stroke-opacity:1"
       d="m 122.12965,151.43644 c -0.81705,-0.24712 -1.63896,-0.96817 -2.03415,-1.78454 -1.24781,-2.57762 0.9818,-5.41097 3.83655,-4.87541 0.80998,0.15195 2.10523,1.2634 2.46005,2.11095 1.06324,2.53976 -1.57973,5.36041 -4.26245,4.549 z"
       id="path125496" />
  </g>
  <path
     style="fill:#f9f9f9;stroke-width:0.52125;fill-opacity:1"
     d="M 195.63708,438.63538 C 176.33149,437.13395 147.54522,428.00212 120.92997,414.93615 97.563139,403.4649 85.579834,394.69792 64.626517,373.74461 49.774859,358.89295 43.215701,350.91142 34.523915,337.11415 30.092901,330.0804 20.688855,311.40568 16.742578,301.80367 10.359596,286.2727 4.4222697,265.95877 2.6501872,253.58806 -0.18194445,233.81725 0.4335369,198.12909 3.9311943,179.30995 6.2667332,166.74359 12.18231,147.78704 18.04924,134.06849 41.824857,78.474302 87.559765,34.804768 144.04117,13.766313 157.51534,8.7473931 173.80889,4.3328378 185.14096,2.6307866 c 15.10319,-2.26846561 54.09196,-2.44648398 68.18647,-0.3113319 18.76053,2.8419979 42.07004,10.2347293 61.35228,19.4581933 35.59541,17.026699 66.67928,44.134605 88.8905,77.52045 6.75796,10.157942 17.02798,30.236042 22.5146,44.016482 4.61259,11.58521 9.79932,30.78054 11.76849,43.55349 0.60568,3.92867 0.92539,10.84194 1.13297,24.49875 0.51436,33.83929 -0.95434,47.01326 -7.72383,69.28168 -5.56252,18.29806 -14.25064,38.17098 -23.1495,52.95141 -8.20315,13.62491 -16.82777,24.18172 -32.79851,40.14643 -21.0483,21.04036 -29.66994,27.55692 -51.09702,38.62103 -28.36904,14.64868 -50.93841,22.23748 -75.88717,25.51657 -7.43983,0.97784 -43.22107,1.48811 -52.69316,0.75144 z M 102.70702,310.13583 c 9.76859,-2.48313 18.34649,-9.88301 23.59208,-20.3521 3.52072,-7.02663 4.27399,-5.6951 4.27399,7.55505 v 9.93801 h 7.55812 7.55813 V 206.41494 105.5531 h -7.53687 -7.53685 l -0.15158,40.11045 c -0.10913,28.87716 -0.3161,40.27491 -0.73905,40.69765 -0.71965,0.71931 -1.77902,-0.7001 -4.6766,-6.26594 -4.96568,-9.53841 -12.76163,-16.22806 -21.58029,-18.51792 -5.010742,-1.30109 -14.14293,-0.86039 -18.890906,0.91165 -5.257196,1.96208 -8.996314,4.39782 -13.419307,8.74159 -11.351404,11.14808 -18.772871,29.65303 -20.38755,50.83505 -0.651593,8.54786 -0.354021,25.29328 0.606479,34.12868 1.859772,17.10758 8.729819,33.20186 18.325825,42.93142 5.703443,5.78282 12.992403,9.96791 19.952335,11.45598 2.526763,0.54024 10.204492,0.27795 13.052044,-0.44588 z m 95.88918,-3.11004 c 20.00631,-0.30135 22.0686,-0.60576 29.71124,-4.38559 8.0429,-3.97779 13.68024,-9.69003 17.92844,-18.16666 4.48685,-8.95282 7.48416,-21.35525 8.39936,-34.75535 0.6559,-9.60337 0.6485,-77.11066 -0.009,-86.74768 -0.88718,-12.99374 -4.18033,-26.32816 -8.65215,-35.03382 -5.21,-10.14271 -12.53602,-16.40766 -23.48421,-20.08285 -5.10624,-1.71411 -15.00296,-2.25141 -42.00662,-2.2806 l -18.63469,-0.0201 v 11.20687 11.20687 h 5.99437 5.99438 v 78.18748 78.18748 h -5.99438 -5.99437 v 11.70211 11.70211 l 9.77344,-0.23056 c 5.37538,-0.12681 17.51399,-0.34716 26.97468,-0.48967 z m 77.14497,-1.49945 c 9.02923,-4.22322 10.9482,-15.26869 3.73324,-21.48816 -3.23995,-2.79291 -4.88313,-3.4762 -8.39653,-3.49156 -7.68774,-0.0336 -13.37408,5.41365 -13.417,12.85284 -0.0565,9.78993 9.44768,16.1646 18.08029,12.12688 z"
     id="path707"
     transform="scale(0.26458333)" />
  <path
     style="fill:#f9f9f9;stroke-width:0.5"
     d="m 189.75,206.43621 v -78.81379 l 9.625,0.3385 c 13.92988,0.48989 16.83575,0.93171 21.69192,3.29814 8.50001,4.14207 13.53186,12.37071 16.18323,26.46464 1.34771,7.16403 1.98882,24.45772 1.99359,53.7763 0.004,25.01475 -0.38653,33.30582 -2.03374,43.16877 -1.8344,10.98379 -4.29458,16.93342 -9.04958,21.88525 -3.2265,3.36007 -7.20147,5.62568 -12.17768,6.94091 -2.63914,0.69753 -16.24651,1.70094 -23.60774,1.74084 l -2.625,0.0142 z"
     id="path746"
     transform="scale(0.26458333)" />
  <path
     style="fill:#2b292c;stroke-width:0.5;fill-opacity:1"
     d="m 91.390714,289.26518 c -3.059335,-0.72707 -7.199742,-3.1226 -10.203315,-5.90338 -7.432648,-6.88132 -12.298471,-17.01193 -14.276115,-29.72276 -1.106543,-7.11203 -1.235998,-26.74726 -0.223432,-33.88904 2.33222,-16.44948 10.7273,-30.56741 21.277023,-35.78137 3.746784,-1.85176 3.90858,-1.88337 9.743481,-1.90361 5.893194,-0.0204 5.960074,-0.007 9.862534,1.91041 7.14553,3.51172 13.89367,11.49003 17.64564,20.86239 3.90613,9.75743 5.01566,16.37277 5.01689,29.91218 0.001,11.25353 -0.73472,19.36528 -2.22823,24.56679 -4.6316,16.13063 -13.20689,27.01366 -23.43028,29.73574 -2.73185,0.72738 -10.491679,0.85254 -13.184196,0.21265 z"
     id="path785"
     transform="scale(0.26458333)" />
  <path
     style="fill:#2b292c;fill-opacity:1;stroke-width:0.5"
     d="M 162.25,295.9586 V 284.75 h 6 6 V 206 127.25 h -6 -6 v -10.75429 -10.75429 l 21.875,0.29316 c 29.95598,0.40146 33.73228,0.67266 39.49235,2.83623 6.3266,2.37637 9.73846,4.51747 14.14901,8.87919 7.48965,7.40672 12.25671,18.29917 15.22005,34.77687 1.41267,7.85516 1.88061,26.52523 1.59715,63.72313 -0.27293,35.81425 -0.40513,38.46614 -2.40534,48.25 -4.52753,22.14597 -13.84426,34.72712 -29.62329,40.00276 -5.0121,1.67577 -12.00673,2.10086 -39.92993,2.4267 l -20.375,0.23775 z m 41.29871,-10.6937 c 10.73339,-0.50357 14.24959,-1.20797 19.33307,-3.87299 10.17116,-5.33225 14.63607,-16.38556 16.4232,-40.65716 0.68416,-9.29176 0.28988,-65.87319 -0.52657,-75.5661 -0.30574,-3.62964 -1.16163,-8.81924 -2.00577,-12.16164 -3.42444,-13.55929 -9.4642,-20.97278 -19.52264,-23.96303 -2.56085,-0.7613 -16.58881,-1.76917 -24.875,-1.78718 l -3.125,-0.007 v 79.25 79.25 l 2.375,-0.0186 c 1.30625,-0.0102 6.67192,-0.22015 11.92371,-0.46655 z"
     id="path12563"
     transform="scale(0.26458333)" />
  <path
     style="fill:#2b292c;fill-opacity:1;stroke-width:0.5"
     d="M 91.236435,310.24305 C 72.418867,307.32019 57.192125,287.84396 52.542186,260.75 51.145492,252.61183 50.502313,236.0318 51.158942,225.09236 51.816907,214.13067 53.14896,206.904 56.1856,197.82168 59.928783,186.62614 64.577503,178.75512 71.436202,172 78.88506,164.66363 84.897948,161.83713 94,161.39337 c 3.592326,-0.17514 5.969425,-0.0161 8.44336,0.56509 9.27536,2.17881 17.61361,9.41921 22.7925,19.79154 2.48744,4.98188 4.4036,6.6579 5.28767,4.625 0.20928,-0.48125 0.48456,-18.81875 0.61174,-40.75 l 0.23122,-39.875 h 6.94175 6.94176 V 206.5 307.25 h -7 -7 v -7.92666 c 0,-4.35966 -0.14456,-9.30966 -0.32123,-11 -0.29015,-2.77599 -0.43198,-3.07334 -1.46595,-3.07334 -1.30943,0 -2.38059,1.34593 -4.62389,5.81003 -2.07257,4.12433 -6.80773,9.97895 -10.12444,12.51799 -6.97517,5.33971 -15.828931,7.85314 -23.478055,6.66503 z M 104.9923,289.481 c 8.14495,-2.1215 14.21125,-8.22463 19.79573,-19.91592 4.50103,-9.42304 5.95136,-17.922 5.94115,-34.81508 -0.007,-11.00193 -0.62371,-16.69522 -2.49284,-23 -4.12547,-13.91564 -11.04188,-23.59952 -20.16109,-28.22819 -3.6106,-1.83265 -3.66722,-1.8432 -9.853358,-1.83675 -6.665645,0.007 -8.638478,0.44833 -12.735309,2.84923 -6.93076,4.0617 -14.308082,14.99237 -17.432036,25.82831 -3.227791,11.19613 -3.638848,35.07878 -0.824215,47.8874 3.450132,15.7006 11.843032,27.34951 22.294337,30.94338 3.71142,1.27624 11.141601,1.4144 15.467631,0.28762 z"
     id="path12602"
     transform="scale(0.26458333)" />
  <path
     style="fill:#f9f9f9;fill-opacity:1;stroke-width:0.176777"
     d="m 94.921636,289.99557 c -3.5732,-0.33776 -6.520568,-1.2893 -9.488077,-3.06318 -5.262292,-3.14563 -10.040943,-8.70804 -13.394032,-15.59082 -4.57077,-9.38228 -6.365342,-19.32204 -6.365342,-35.25629 0,-8.27678 0.473851,-14.63443 1.514208,-20.31609 2.298698,-12.55378 9.195653,-24.47514 17.487644,-30.22733 1.580467,-1.09637 4.425537,-2.52299 5.987649,-3.00242 1.964228,-0.60284 4.192228,-0.77791 8.573408,-0.67368 2.972656,0.0707 4.272826,0.17158 5.060446,0.39254 1.43254,0.4019 4.58114,1.99429 6.63059,3.35339 8.32514,5.52086 14.4741,15.75265 17.95631,29.8791 1.24134,5.03579 1.5814,10.31983 1.43348,22.27386 -0.16665,13.46712 -0.63377,17.31408 -2.96587,24.42559 -1.83845,5.60616 -4.05886,10.2852 -6.90637,14.55368 -2.90822,4.35947 -4.98071,6.61661 -8.19248,8.92235 -1.73981,1.24902 -5.20099,2.95211 -6.99192,3.44042 -2.85591,0.77867 -7.385782,1.1681 -10.339644,0.88888 z"
     id="path18062"
     transform="scale(0.26458333)" />
  <path
     style="fill:#f9f9f9;fill-opacity:1;stroke-width:0.707107"
     d="m 267.99347,305.85654 c -4.31662,-1.00602 -7.93914,-4.33573 -9.19219,-8.44918 -3.2371,-10.62661 8.22743,-20.15065 17.61535,-14.63376 4.69661,2.76002 6.42608,5.66311 6.42608,10.78686 0,3.79523 -0.27797,4.70238 -2.16674,7.07106 -3.25873,4.08674 -8.42824,6.2165 -12.6825,5.22502 z"
     id="path18101"
     transform="scale(0.26458333)" />
  <path
     style="fill:#f9f9f9;fill-opacity:1;stroke-width:0.25"
     d="m 266.81549,305.88953 c -1.96427,-0.62792 -3.64441,-1.7593 -5.4006,-3.63668 -4.86378,-5.1994 -4.73295,-12.45811 0.31595,-17.53009 2.91445,-2.92776 5.58339,-3.96869 9.73905,-3.79839 2.85695,0.11708 4.06862,0.5892 6.69762,2.60968 2.58171,1.98414 4.4391,4.53614 5.07313,6.97034 1.66248,6.38271 -2.72345,13.45237 -9.59852,15.47176 -1.82536,0.53616 -5.00466,0.49582 -6.82663,-0.0866 z"
     id="path18140"
     transform="scale(0.26458333)" />
  <path
     style="fill:#2b292c;fill-opacity:1;stroke-width:0.25"
     d="m 266.81549,305.88953 c -1.96427,-0.62792 -3.64441,-1.7593 -5.4006,-3.63668 -3.14245,-3.35929 -4.2561,-7.68078 -3.07604,-11.93647 0.62318,-2.24738 1.83728,-4.1878 3.73378,-5.96747 2.80394,-2.63121 5.42523,-3.58674 9.39726,-3.42554 2.14882,0.0872 2.7434,0.2088 3.94546,0.80687 3.07852,1.5317 6.50013,5.02582 7.48612,7.64476 0.66102,1.75576 0.86991,4.46932 0.48619,6.31564 -0.96605,4.64821 -4.98155,8.8862 -9.74554,10.28551 -1.82536,0.53616 -5.00466,0.49582 -6.82663,-0.0866 z"
     id="path18179"
     transform="scale(0.26458333)" />
</svg>
